<svg width="640" height="640" viewBox="0 0 640 640" fill="none" xmlns="http://www.w3.org/2000/svg">
  <rect width="640" height="640" rx="72" fill="#E7F0EA"/>
  <circle cx="478" cy="162" r="58" fill="#F1D6AA"/>
  <path d="M84 488C144 374 218 326 306 438C356 502 404 502 464 420C506 364 550 360 596 430V568H84V488Z" fill="#BFD5CC"/>
  <path d="M0 532C92 394 182 366 272 468C356 562 430 536 500 462C548 412 594 418 640 474V640H0V532Z" fill="#94AFA4"/>
  <path d="M154 152C194 118 238 116 282 152" stroke="#71877B" stroke-width="16" stroke-linecap="round"/>
  <path d="M168 202C212 172 256 172 300 202" stroke="#71877B" stroke-width="16" stroke-linecap="round" opacity="0.55"/>
  <text x="72" y="106" fill="#71877B" font-family="Arial, sans-serif" font-size="34" font-weight="700">慢聊小记测试图片</text>
</svg>
