<svg width="125" height="115" viewBox="0 0 125 115" fill="none" xmlns="http://www.w3.org/2000/svg">
<g clip-path="url(#clip0_5_9)">
<path d="M24 106C43 74 55 48 92 14" stroke="#71877B" stroke-width="2.5" stroke-linecap="round"/>
<path d="M54 62C39 54 30 43 25 28" stroke="#71877B" stroke-width="2" stroke-linecap="round"/>
<path d="M70 43C85 44 98 38 109 26" stroke="#71877B" stroke-width="2" stroke-linecap="round"/>
<path d="M30.5984 37.961C35.7504 34.7416 35.1819 24.5382 29.3285 15.1709C23.4752 5.80362 14.5536 0.819722 9.40162 4.03905C4.24961 7.25838 4.81815 17.4618 10.6715 26.8291C16.5248 36.1964 25.4464 41.1803 30.5984 37.961Z" fill="#D9E6DC"/>
<path d="M100.43 35.7888C104.661 39.3388 113.27 36.0432 119.66 28.4279C126.05 20.8125 127.801 11.7612 123.57 8.2112C119.339 4.66118 110.73 7.95678 104.34 15.5721C97.9495 23.1875 96.1991 32.2388 100.43 35.7888Z" fill="#F3DCCB"/>
<path d="M85.5 25.7224C89.8046 28.2077 97.0998 23.631 101.794 15.5C106.489 7.36901 106.805 -1.23716 102.5 -3.72244C98.1954 -6.20772 90.9002 -1.63099 86.2058 6.49999C81.5114 14.631 81.1954 23.2371 85.5 25.7224Z" fill="#D9E6DC"/>
</g>
<defs>
<clipPath id="clip0_5_9">
<rect width="125" height="115" fill="white"/>
</clipPath>
</defs>
</svg>
